<svg xmlns="http://www.w3.org/2000/svg" viewBox="0 0 320 264" width="320" height="264" preserveAspectRatio="xMidYMid meet" style="width: 100%; height: 100%;"><defs><clipPath id="animationMask_mPSp3YsH9D"><rect width="320" height="264" x="0" y="0"></rect></clipPath><clipPath id="cp_xd2zbCTj"><path d="M0,0 L320,0 L320,264 L0,264z"></path></clipPath></defs><g clip-path="url(#animationMask_mPSp3YsH9D)"><g clip-path="url(#cp_xd2zbCTj)" transform="matrix(1,0,0,1,-2,0)" opacity="1"><g transform="matrix(0.829,0.5592,-0.5592,0.829,56.5348,221.017)" opacity="1" style="user-select: none;"><g opacity="1" transform="matrix(0.9936,0,0,1,0,0)"><path fill="rgb(255,255,255)" fill-opacity="1" d="M0 0 M-16.313,-50.5 C-16.313,-50.5 -17.739,-40 -17.739,-40 C-17.739,-40 -6.793,-45 -6.793,-45 C-6.793,-45 -16.313,-50.5 -16.313,-50.5z"></path><path stroke-linecap="round" stroke-linejoin="round" fill-opacity="0" stroke="rgb(0,190,124)" stroke-opacity="1" stroke-width="1" d="M0 0 M-16.313,-50.5 C-16.313,-50.5 -17.739,-40 -17.739,-40 C-17.739,-40 -6.793,-45 -6.793,-45 C-6.793,-45 -16.313,-50.5 -16.313,-50.5z"></path></g></g><g transform="matrix(0,1,-1,0,202.75,131)" opacity="1" style="user-select: none;"><g opacity="1" transform="matrix(0.7098,-0.6953,0.6998,0.7143,0,0)"><path fill="rgb(0,212,133)" fill-opacity="1" d="M0 0 M-16.313,-50.5 C-16.313,-50.5 -17.739,-40 -17.739,-40 C-17.739,-40 -6.793,-45 -6.793,-45 C-6.793,-45 -16.313,-50.5 -16.313,-50.5z"></path><path stroke-linecap="butt" stroke-linejoin="round" fill-opacity="0" stroke="rgb(0,190,124)" stroke-opacity="1" stroke-width="1" d="M0 0 M-16.313,-50.5 C-16.313,-50.5 -17.739,-40 -17.739,-40 C-17.739,-40 -6.793,-45 -6.793,-45 C-6.793,-45 -16.313,-50.5 -16.313,-50.5z"></path></g></g><g transform="matrix(0.809,0.5878,-0.5878,0.809,156.5079,233.4592)" opacity="1" style="user-select: none;"><g opacity="1" transform="matrix(0.9936,0,0,1,0,0)"><path fill="rgb(255,255,255)" fill-opacity="1" d="M0 0 M-16.313,-50.5 C-16.313,-50.5 -17.739,-40 -17.739,-40 C-17.739,-40 -6.793,-45 -6.793,-45 C-6.793,-45 -16.313,-50.5 -16.313,-50.5z"></path><path stroke-linecap="round" stroke-linejoin="round" fill-opacity="0" stroke="rgb(193,168,131)" stroke-opacity="1" stroke-width="1" d="M0 0 M-16.313,-50.5 C-16.313,-50.5 -17.739,-40 -17.739,-40 C-17.739,-40 -6.793,-45 -6.793,-45 C-6.793,-45 -16.313,-50.5 -16.313,-50.5z"></path></g></g><g transform="matrix(1,0,0,1,54,55)" opacity="1" style="user-select: none;"><g opacity="1" transform="matrix(0.9205,0.3907,-0.3907,0.9205,28.4185,-18.915)"><path fill="rgb(218,202,181)" fill-opacity="1" d="M0 0 M0,-4.1365 C2.2829343499999997,-4.1365 4.1365,-2.2829343499999997 4.1365,0 C4.1365,2.2829343499999997 2.2829343499999997,4.1365 0,4.1365 C-2.2829343499999997,4.1365 -4.1365,2.2829343499999997 -4.1365,0 C-4.1365,-2.2829343499999997 -2.2829343499999997,-4.1365 0,-4.1365z"></path><path stroke-linecap="butt" stroke-linejoin="miter" fill-opacity="0" stroke-miterlimit="4" stroke="rgb(193,168,131)" stroke-opacity="1" stroke-width="1" d="M0 0 M0,-4.1365 C2.2829343499999997,-4.1365 4.1365,-2.2829343499999997 4.1365,0 C4.1365,2.2829343499999997 2.2829343499999997,4.1365 0,4.1365 C-2.2829343499999997,4.1365 -4.1365,2.2829343499999997 -4.1365,0 C-4.1365,-2.2829343499999997 -2.2829343499999997,-4.1365 0,-4.1365z"></path></g></g><g transform="matrix(1,0,0,1,256,139.5)" opacity="1" style="user-select: none;"><g opacity="1" transform="matrix(0.9205,0.3907,-0.3907,0.9205,28.4185,-18.915)"><path fill="rgb(255,255,255)" fill-opacity="1" d="M0 0 M0,-4.1365 C2.2829343499999997,-4.1365 4.1365,-2.2829343499999997 4.1365,0 C4.1365,2.2829343499999997 2.2829343499999997,4.1365 0,4.1365 C-2.2829343499999997,4.1365 -4.1365,2.2829343499999997 -4.1365,0 C-4.1365,-2.2829343499999997 -2.2829343499999997,-4.1365 0,-4.1365z"></path><path stroke-linecap="butt" stroke-linejoin="miter" fill-opacity="0" stroke-miterlimit="4" stroke="rgb(193,168,131)" stroke-opacity="1" stroke-width="1" d="M0 0 M0,-4.1365 C2.2829343499999997,-4.1365 4.1365,-2.2829343499999997 4.1365,0 C4.1365,2.2829343499999997 2.2829343499999997,4.1365 0,4.1365 C-2.2829343499999997,4.1365 -4.1365,2.2829343499999997 -4.1365,0 C-4.1365,-2.2829343499999997 -2.2829343499999997,-4.1365 0,-4.1365z"></path></g></g><g transform="matrix(1,0,0,1,180.5,250)" opacity="1" style="user-select: none;"><g opacity="1" transform="matrix(0.9205,0.3907,-0.3907,0.9205,28.4185,-18.915)"><path fill="rgb(0,212,133)" fill-opacity="1" d="M0 0 M0,-4.1365 C2.2829343499999997,-4.1365 4.1365,-2.2829343499999997 4.1365,0 C4.1365,2.2829343499999997 2.2829343499999997,4.1365 0,4.1365 C-2.2829343499999997,4.1365 -4.1365,2.2829343499999997 -4.1365,0 C-4.1365,-2.2829343499999997 -2.2829343499999997,-4.1365 0,-4.1365z"></path><path stroke-linecap="butt" stroke-linejoin="miter" fill-opacity="0" stroke-miterlimit="4" stroke="rgb(0,190,124)" stroke-opacity="1" stroke-width="1" d="M0 0 M0,-4.1365 C2.2829343499999997,-4.1365 4.1365,-2.2829343499999997 4.1365,0 C4.1365,2.2829343499999997 2.2829343499999997,4.1365 0,4.1365 C-2.2829343499999997,4.1365 -4.1365,2.2829343499999997 -4.1365,0 C-4.1365,-2.2829343499999997 -2.2829343499999997,-4.1365 0,-4.1365z"></path></g></g><g transform="matrix(0.5,0.866,-0.866,0.5,254.993,76.0167)" opacity="1" style="user-select: none;"><g opacity="1" transform="matrix(1,0,0,1,-26.367,-41.399)"><path fill="rgb(0,212,133)" fill-opacity="1" d="M0 0 M5.133,0 C5.133,0 5.133,0 5.133,0 C5.133,0.7456168999999999 4.5276169,1.351 3.782,1.351 C3.782,1.351 -3.782,1.351 -3.782,1.351 C-4.5276169,1.351 -5.133,0.7456168999999999 -5.133,0 C-5.133,0 -5.133,0 -5.133,0 C-5.133,-0.7456168999999999 -4.5276169,-1.351 -3.782,-1.351 C-3.782,-1.351 3.782,-1.351 3.782,-1.351 C4.5276169,-1.351 5.133,-0.7456168999999999 5.133,0z"></path><path stroke-linecap="butt" stroke-linejoin="miter" fill-opacity="0" stroke-miterlimit="4" stroke="rgb(0,190,124)" stroke-opacity="1" stroke-width="1" d="M0 0 M5.133,0 C5.133,0 5.133,0 5.133,0 C5.133,0.7456168999999999 4.5276169,1.351 3.782,1.351 C3.782,1.351 -3.782,1.351 -3.782,1.351 C-4.5276169,1.351 -5.133,0.7456168999999999 -5.133,0 C-5.133,0 -5.133,0 -5.133,0 C-5.133,-0.7456168999999999 -4.5276169,-1.351 -3.782,-1.351 C-3.782,-1.351 3.782,-1.351 3.782,-1.351 C4.5276169,-1.351 5.133,-0.7456168999999999 5.133,0z"></path></g></g><g transform="matrix(0.7314,0.682,-0.682,0.7314,27.5533,256.7175)" opacity="1" style="user-select: none;"><g opacity="1" transform="matrix(1,0,0,1,-26.367,-41.399)"><path fill="rgb(255,255,255)" fill-opacity="1" d="M0 0 M5.133,0 C5.133,0 5.133,0 5.133,0 C5.133,0.7456168999999999 4.5276169,1.351 3.782,1.351 C3.782,1.351 -3.782,1.351 -3.782,1.351 C-4.5276169,1.351 -5.133,0.7456168999999999 -5.133,0 C-5.133,0 -5.133,0 -5.133,0 C-5.133,-0.7456168999999999 -4.5276169,-1.351 -3.782,-1.351 C-3.782,-1.351 3.782,-1.351 3.782,-1.351 C4.5276169,-1.351 5.133,-0.7456168999999999 5.133,0z"></path><path stroke-linecap="butt" stroke-linejoin="miter" fill-opacity="0" stroke-miterlimit="4" stroke="rgb(0,190,124)" stroke-opacity="1" stroke-width="1" d="M0 0 M5.133,0 C5.133,0 5.133,0 5.133,0 C5.133,0.7456168999999999 4.5276169,1.351 3.782,1.351 C3.782,1.351 -3.782,1.351 -3.782,1.351 C-4.5276169,1.351 -5.133,0.7456168999999999 -5.133,0 C-5.133,0 -5.133,0 -5.133,0 C-5.133,-0.7456168999999999 -4.5276169,-1.351 -3.782,-1.351 C-3.782,-1.351 3.782,-1.351 3.782,-1.351 C4.5276169,-1.351 5.133,-0.7456168999999999 5.133,0z"></path></g></g><g transform="matrix(-0.7986,0.6018,-0.6018,-0.7986,50.5611,88.4031)" opacity="1" style="user-select: none;"><g opacity="1" transform="matrix(1,0,0,1,-26.367,-41.399)"><path fill="rgb(255,255,255)" fill-opacity="1" d="M0 0 M5.133,0 C5.133,0 5.133,0 5.133,0 C5.133,0.7456168999999999 4.5276169,1.351 3.782,1.351 C3.782,1.351 -3.782,1.351 -3.782,1.351 C-4.5276169,1.351 -5.133,0.7456168999999999 -5.133,0 C-5.133,0 -5.133,0 -5.133,0 C-5.133,-0.7456168999999999 -4.5276169,-1.351 -3.782,-1.351 C-3.782,-1.351 3.782,-1.351 3.782,-1.351 C4.5276169,-1.351 5.133,-0.7456168999999999 5.133,0z"></path><path stroke-linecap="butt" stroke-linejoin="miter" fill-opacity="0" stroke-miterlimit="4" stroke="rgb(193,168,131)" stroke-opacity="1" stroke-width="1" d="M0 0 M5.133,0 C5.133,0 5.133,0 5.133,0 C5.133,0.7456168999999999 4.5276169,1.351 3.782,1.351 C3.782,1.351 -3.782,1.351 -3.782,1.351 C-4.5276169,1.351 -5.133,0.7456168999999999 -5.133,0 C-5.133,0 -5.133,0 -5.133,0 C-5.133,-0.7456168999999999 -4.5276169,-1.351 -3.782,-1.351 C-3.782,-1.351 3.782,-1.351 3.782,-1.351 C4.5276169,-1.351 5.133,-0.7456168999999999 5.133,0z"></path></g></g><g transform="matrix(1,0,0,1,113,162.5)" opacity="1" style="user-select: none;"><g opacity="1" transform="matrix(0.9205,0.3907,-0.3907,0.9205,28.4185,-18.915)"><path fill="rgb(218,202,181)" fill-opacity="1" d="M0 0 M0,-4.1365 C2.2829343499999997,-4.1365 4.1365,-2.2829343499999997 4.1365,0 C4.1365,2.2829343499999997 2.2829343499999997,4.1365 0,4.1365 C-2.2829343499999997,4.1365 -4.1365,2.2829343499999997 -4.1365,0 C-4.1365,-2.2829343499999997 -2.2829343499999997,-4.1365 0,-4.1365z"></path><path stroke-linecap="butt" stroke-linejoin="miter" fill-opacity="0" stroke-miterlimit="4" stroke="rgb(193,168,131)" stroke-opacity="1" stroke-width="1" d="M0 0 M0,-4.1365 C2.2829343499999997,-4.1365 4.1365,-2.2829343499999997 4.1365,0 C4.1365,2.2829343499999997 2.2829343499999997,4.1365 0,4.1365 C-2.2829343499999997,4.1365 -4.1365,2.2829343499999997 -4.1365,0 C-4.1365,-2.2829343499999997 -2.2829343499999997,-4.1365 0,-4.1365z"></path></g></g><g transform="matrix(1,0,0,1,77.5,247.5)" opacity="1" style="user-select: none;"><g opacity="1" transform="matrix(0.9205,0.3907,-0.3907,0.9205,28.4185,-18.915)"><path fill="rgb(218,202,181)" fill-opacity="1" d="M0 0 M0,-4.1365 C2.2829343499999997,-4.1365 4.1365,-2.2829343499999997 4.1365,0 C4.1365,2.2829343499999997 2.2829343499999997,4.1365 0,4.1365 C-2.2829343499999997,4.1365 -4.1365,2.2829343499999997 -4.1365,0 C-4.1365,-2.2829343499999997 -2.2829343499999997,-4.1365 0,-4.1365z"></path><path stroke-linecap="butt" stroke-linejoin="miter" fill-opacity="0" stroke-miterlimit="4" stroke="rgb(193,168,131)" stroke-opacity="1" stroke-width="1" d="M0 0 M0,-4.1365 C2.2829343499999997,-4.1365 4.1365,-2.2829343499999997 4.1365,0 C4.1365,2.2829343499999997 2.2829343499999997,4.1365 0,4.1365 C-2.2829343499999997,4.1365 -4.1365,2.2829343499999997 -4.1365,0 C-4.1365,-2.2829343499999997 -2.2829343499999997,-4.1365 0,-4.1365z"></path></g></g><g transform="matrix(0.829,0.5592,-0.5592,0.829,260.5348,260.017)" opacity="1" style="user-select: none;"><g opacity="1" transform="matrix(0.9936,0,0,1,0,0)"><path fill="rgb(255,255,255)" fill-opacity="1" d="M0 0 M-16.313,-50.5 C-16.313,-50.5 -17.739,-40 -17.739,-40 C-17.739,-40 -6.793,-45 -6.793,-45 C-6.793,-45 -16.313,-50.5 -16.313,-50.5z"></path><path stroke-linecap="round" stroke-linejoin="round" fill-opacity="0" stroke="rgb(0,190,124)" stroke-opacity="1" stroke-width="1" d="M0 0 M-16.313,-50.5 C-16.313,-50.5 -17.739,-40 -17.739,-40 C-17.739,-40 -6.793,-45 -6.793,-45 C-6.793,-45 -16.313,-50.5 -16.313,-50.5z"></path></g></g><g transform="matrix(0.766,0.6428,-0.6428,0.766,219.5629,200.6203)" opacity="1" style="user-select: none;"><g opacity="1" transform="matrix(1,0,0,1,-26.367,-41.399)"><path fill="rgb(255,255,255)" fill-opacity="1" d="M0 0 M5.133,0 C5.133,0 5.133,0 5.133,0 C5.133,0.7456168999999999 4.5276169,1.351 3.782,1.351 C3.782,1.351 -3.782,1.351 -3.782,1.351 C-4.5276169,1.351 -5.133,0.7456168999999999 -5.133,0 C-5.133,0 -5.133,0 -5.133,0 C-5.133,-0.7456168999999999 -4.5276169,-1.351 -3.782,-1.351 C-3.782,-1.351 3.782,-1.351 3.782,-1.351 C4.5276169,-1.351 5.133,-0.7456168999999999 5.133,0z"></path><path stroke-linecap="butt" stroke-linejoin="miter" fill-opacity="0" stroke-miterlimit="4" stroke="rgb(193,168,131)" stroke-opacity="1" stroke-width="1" d="M0 0 M5.133,0 C5.133,0 5.133,0 5.133,0 C5.133,0.7456168999999999 4.5276169,1.351 3.782,1.351 C3.782,1.351 -3.782,1.351 -3.782,1.351 C-4.5276169,1.351 -5.133,0.7456168999999999 -5.133,0 C-5.133,0 -5.133,0 -5.133,0 C-5.133,-0.7456168999999999 -4.5276169,-1.351 -3.782,-1.351 C-3.782,-1.351 3.782,-1.351 3.782,-1.351 C4.5276169,-1.351 5.133,-0.7456168999999999 5.133,0z"></path></g></g><g transform="matrix(1,0,0,1,-5,163.75)" opacity="1" style="user-select: none;"><g opacity="1" transform="matrix(0.9205,0.3907,-0.3907,0.9205,28.4185,-18.915)"><path fill="rgb(0,212,133)" fill-opacity="1" d="M0 0 M0,-4.1365 C2.2829343499999997,-4.1365 4.1365,-2.2829343499999997 4.1365,0 C4.1365,2.2829343499999997 2.2829343499999997,4.1365 0,4.1365 C-2.2829343499999997,4.1365 -4.1365,2.2829343499999997 -4.1365,0 C-4.1365,-2.2829343499999997 -2.2829343499999997,-4.1365 0,-4.1365z"></path><path stroke-linecap="butt" stroke-linejoin="miter" fill-opacity="0" stroke-miterlimit="4" stroke="rgb(0,190,124)" stroke-opacity="1" stroke-width="1" d="M0 0 M0,-4.1365 C2.2829343499999997,-4.1365 4.1365,-2.2829343499999997 4.1365,0 C4.1365,2.2829343499999997 2.2829343499999997,4.1365 0,4.1365 C-2.2829343499999997,4.1365 -4.1365,2.2829343499999997 -4.1365,0 C-4.1365,-2.2829343499999997 -2.2829343499999997,-4.1365 0,-4.1365z"></path></g></g><g transform="matrix(0.1045,0.9945,-0.9945,0.1045,137.6773,45.8894)" opacity="1" style="user-select: none;"><g opacity="1" transform="matrix(0.9205,0.3907,-0.3907,0.9205,28.4185,-18.915)"><path fill="rgb(255,255,255)" fill-opacity="1" d="M0 0 M0,-4.1365 C2.2829343499999997,-4.1365 4.1365,-2.2829343499999997 4.1365,0 C4.1365,2.2829343499999997 2.2829343499999997,4.1365 0,4.1365 C-2.2829343499999997,4.1365 -4.1365,2.2829343499999997 -4.1365,0 C-4.1365,-2.2829343499999997 -2.2829343499999997,-4.1365 0,-4.1365z"></path><path stroke-linecap="butt" stroke-linejoin="miter" fill-opacity="0" stroke-miterlimit="4" stroke="rgb(0,190,124)" stroke-opacity="1" stroke-width="1" d="M0 0 M0,-4.1365 C2.2829343499999997,-4.1365 4.1365,-2.2829343499999997 4.1365,0 C4.1365,2.2829343499999997 2.2829343499999997,4.1365 0,4.1365 C-2.2829343499999997,4.1365 -4.1365,2.2829343499999997 -4.1365,0 C-4.1365,-2.2829343499999997 -2.2829343499999997,-4.1365 0,-4.1365z"></path></g></g><g transform="matrix(0.5878,0.809,-0.809,0.5878,16.6127,127.1336)" opacity="1" style="user-select: none;"><g opacity="1" transform="matrix(1,0,0,1,-26.367,-41.399)"><path fill="rgb(0,212,133)" fill-opacity="1" d="M0 0 M5.133,0 C5.133,0 5.133,0 5.133,0 C5.133,0.7456168999999999 4.5276169,1.351 3.782,1.351 C3.782,1.351 -3.782,1.351 -3.782,1.351 C-4.5276169,1.351 -5.133,0.7456168999999999 -5.133,0 C-5.133,0 -5.133,0 -5.133,0 C-5.133,-0.7456168999999999 -4.5276169,-1.351 -3.782,-1.351 C-3.782,-1.351 3.782,-1.351 3.782,-1.351 C4.5276169,-1.351 5.133,-0.7456168999999999 5.133,0z"></path><path stroke-linecap="butt" stroke-linejoin="miter" fill-opacity="0" stroke-miterlimit="4" stroke="rgb(0,190,124)" stroke-opacity="1" stroke-width="1" d="M0 0 M5.133,0 C5.133,0 5.133,0 5.133,0 C5.133,0.7456168999999999 4.5276169,1.351 3.782,1.351 C3.782,1.351 -3.782,1.351 -3.782,1.351 C-4.5276169,1.351 -5.133,0.7456168999999999 -5.133,0 C-5.133,0 -5.133,0 -5.133,0 C-5.133,-0.7456168999999999 -4.5276169,-1.351 -3.782,-1.351 C-3.782,-1.351 3.782,-1.351 3.782,-1.351 C4.5276169,-1.351 5.133,-0.7456168999999999 5.133,0z"></path></g></g><g transform="matrix(1,0,0,1,222.5,71.75)" opacity="1" style="user-select: none;"><g opacity="1" transform="matrix(0.9936,0,0,1,0,0)"><path fill="rgb(218,202,181)" fill-opacity="1" d="M0 0 M-16.313,-50.5 C-16.313,-50.5 -17.739,-40 -17.739,-40 C-17.739,-40 -6.793,-45 -6.793,-45 C-6.793,-45 -16.313,-50.5 -16.313,-50.5z"></path><path stroke-linecap="round" stroke-linejoin="round" fill-opacity="0" stroke="rgb(193,168,131)" stroke-opacity="1" stroke-width="1" d="M0 0 M-16.313,-50.5 C-16.313,-50.5 -17.739,-40 -17.739,-40 C-17.739,-40 -6.793,-45 -6.793,-45 C-6.793,-45 -16.313,-50.5 -16.313,-50.5z"></path></g></g></g><g transform="matrix(1,0,0,1,161,132)" opacity="1" style="user-select: none;"><g opacity="1" transform="matrix(1,0,0,1,0.055,-1.535)"><path fill="rgb(255,255,255)" fill-opacity="1" d="M0 0 M0,-80.551 C44.4560969,-80.551 80.551,-44.4560969 80.551,0 C80.551,44.4560969 44.4560969,80.551 0,80.551 C-44.4560969,80.551 -80.551,44.4560969 -80.551,0 C-80.551,-44.4560969 -44.4560969,-80.551 0,-80.551z"></path><path stroke-linecap="butt" stroke-linejoin="miter" fill-opacity="0" stroke-miterlimit="4" stroke="rgb(255,255,255)" stroke-opacity="1" stroke-width="20" d="M0 0 M0,-80.551 C44.4560969,-80.551 80.551,-44.4560969 80.551,0 C80.551,44.4560969 44.4560969,80.551 0,80.551 C-44.4560969,80.551 -80.551,44.4560969 -80.551,0 C-80.551,-44.4560969 -44.4560969,-80.551 0,-80.551z"></path></g></g><g transform="matrix(1,0,0,1,161,132)" opacity="1" style="user-select: none;"><g opacity="1" transform="matrix(0.9607,0,0,0.9607,-0.053,-1.912)"><path stroke-linecap="round" stroke-linejoin="round" fill-opacity="0" stroke="rgb(0,212,133)" stroke-opacity="1" stroke-width="20" d="M0 0 M0,-89.125 C49.188087499999995,-89.125 89.125,-49.188087499999995 89.125,0 C89.125,49.188087499999995 49.188087499999995,89.125 0,89.125 C-49.188087499999995,89.125 -89.125,49.188087499999995 -89.125,0 C-89.125,-49.188087499999995 -49.188087499999995,-89.125 0,-89.125z"></path></g></g><g transform="matrix(1,0,0,1,161,132)" opacity="1" style="user-select: none;"><g opacity="1" transform="matrix(0.9607,0,0,0.9607,-0.053,-1.912)"><path stroke-linecap="round" stroke-linejoin="round" fill-opacity="0" stroke="rgb(0,190,124)" stroke-opacity="1" stroke-width="20" d="M0 0 M0,-89.125 C1.88,-89.125 3.746,-89.067 5.597,-88.952"></path></g></g></g></svg>