<svg xmlns="http://www.w3.org/2000/svg" viewBox="0 0 143 151" width="143" height="151" preserveAspectRatio="xMidYMid meet" style="width: 100%; height: 100%;"><defs><clipPath id="animationMask_IyIlQiZ13o"><rect width="143" height="151" x="0" y="0"></rect></clipPath></defs><g clip-path="url(#animationMask_IyIlQiZ13o)"><g transform="matrix(1,0,0,1,73.234,103)" opacity="1" style="user-select: none;"><g opacity="1" transform="matrix(1,0,0,1,0.016,0.187)"><path fill="rgb(217,203,181)" fill-opacity="1" d="M0 0 M-2.937,-24.5 C-2.937,-24.5 -53,-24.5 -53,-24.5 C-53,-24.5 -53,39.5 -53,39.5 C-53,39.5 45.5,39.5 45.5,39.5 C45.5,39.5 45.5,-24.5 45.5,-24.5 C45.5,-24.5 -3.062,-24.5 -3.062,-24.5"></path><path stroke-linecap="round" stroke-linejoin="round" fill-opacity="0" stroke="rgb(193,168,131)" stroke-opacity="1" stroke-width="4" d="M0 0 M-2.937,-24.5 C-2.937,-24.5 -53,-24.5 -53,-24.5 C-53,-24.5 -53,39.5 -53,39.5 C-53,39.5 45.5,39.5 45.5,39.5 C45.5,39.5 45.5,-24.5 45.5,-24.5 C45.5,-24.5 -3.062,-24.5 -3.062,-24.5"></path></g></g><g transform="matrix(1,0,0,1,76.25,44.061)" opacity="1" style="user-select: none;"><g opacity="1" transform="matrix(1,0,0,1,-43.615,35.301)"><path fill="rgb(0,212,133)" fill-opacity="0" d="M0 0 M36.068,-2.269 C36.115,-1.519 36.139,-0.762 36.139,0 C36.139,12.824 29.444,24.097 19.362,30.512"></path><path stroke-linecap="round" stroke-linejoin="round" fill-opacity="0" stroke="rgb(193,168,131)" stroke-opacity="1" stroke-width="4" d="M0 0 M36.068,-2.269 C36.115,-1.519 36.139,-0.762 36.139,0 C36.139,12.824 29.444,24.097 19.362,30.512"></path></g></g><g transform="matrix(-1,0,0,1,65.75,44.061)" opacity="1" style="user-select: none;"><g opacity="1" transform="matrix(1,0,0,1,-43.615,35.301)"><path fill="rgb(0,212,133)" fill-opacity="0" d="M0 0 M36.068,-2.269 C36.115,-1.519 36.139,-0.762 36.139,0 C36.139,12.824 29.444,24.097 19.362,30.512"></path><path stroke-linecap="round" stroke-linejoin="round" fill-opacity="0" stroke="rgb(193,168,131)" stroke-opacity="1" stroke-width="4" d="M0 0 M36.068,-2.269 C36.115,-1.519 36.139,-0.762 36.139,0 C36.139,12.824 29.444,24.097 19.362,30.512"></path></g></g><g transform="matrix(1,0,0,1,72.246,49.325)" opacity="1" style="user-select: none;"><g opacity="1" transform="matrix(0.9175,-0.3977,0.3977,0.9175,-1.99,-5.322)"><path fill="rgb(0,212,133)" fill-opacity="0" d="M0 0 M-13.768,28.854 C-12.473,24.206 -10.82,11.706 -20,14.5 C-20,14.5 -20,14.5 -20,14.5 C-33.291,18.545 -15,29.5 -14.5,30.5 C-14.399,30.702 -14.095,30.029 -13.768,28.854"></path><path stroke-linecap="butt" stroke-linejoin="miter" fill-opacity="0" stroke-miterlimit="4" stroke="rgb(193,168,132)" stroke-opacity="1" stroke-width="4" d="M0 0 M-13.768,28.854 C-12.473,24.206 -10.82,11.706 -20,14.5 C-20,14.5 -20,14.5 -20,14.5 C-33.291,18.545 -15,29.5 -14.5,30.5 C-14.399,30.702 -14.095,30.029 -13.768,28.854"></path></g></g><g transform="matrix(-1,0,0,1,69.746,49.325)" opacity="1" style="user-select: none;"><g opacity="1" transform="matrix(0.9175,-0.3977,0.3977,0.9175,-1.99,-5.322)"><path fill="rgb(0,212,133)" fill-opacity="0" d="M0 0 M-13.768,28.854 C-12.473,24.206 -10.82,11.706 -20,14.5 C-20,14.5 -20,14.5 -20,14.5 C-33.291,18.545 -15,29.5 -14.5,30.5 C-14.399,30.702 -14.095,30.029 -13.768,28.854"></path><path stroke-linecap="butt" stroke-linejoin="miter" fill-opacity="0" stroke-miterlimit="4" stroke="rgb(193,168,132)" stroke-opacity="1" stroke-width="4" d="M0 0 M-13.768,28.854 C-12.473,24.206 -10.82,11.706 -20,14.5 C-20,14.5 -20,14.5 -20,14.5 C-33.291,18.545 -15,29.5 -14.5,30.5 C-14.399,30.702 -14.095,30.029 -13.768,28.854"></path></g></g><g transform="matrix(1,0,0,1,97,86.5)" opacity="1" style="user-select: none;"><g opacity="1" transform="matrix(1.21,0,0,1.21,19.46,-57.04)"><path fill="rgb(255,255,255)" fill-opacity="0" d="M0 0 M0,-16.96 C9.360223999999999,-16.96 16.96,-9.360223999999999 16.96,0 C16.96,9.360223999999999 9.360223999999999,16.96 0,16.96 C-9.360223999999999,16.96 -16.96,9.360223999999999 -16.96,0 C-16.96,-9.360223999999999 -9.360223999999999,-16.96 0,-16.96z"></path><path stroke-linecap="round" stroke-linejoin="round" fill-opacity="0" stroke="rgb(218,203,181)" stroke-opacity="1" stroke-width="3" d="M0 0 M0,-16.96 C9.360223999999999,-16.96 16.96,-9.360223999999999 16.96,0 C16.96,9.360223999999999 9.360223999999999,16.96 0,16.96 C-9.360223999999999,16.96 -16.96,9.360223999999999 -16.96,0 C-16.96,-9.360223999999999 -9.360223999999999,-16.96 0,-16.96z"></path></g></g><g transform="matrix(1,0,0,1,97,86.5)" opacity="1" style="user-select: none;"><g opacity="1" transform="matrix(1.21,0,0,1.21,19.46,-57.04)"><path fill="rgb(255,255,255)" fill-opacity="0" d="M0 0 M1.458,-16.898 C6.346,-16.481 10.645,-13.987 13.468,-10.304"></path><path stroke-linecap="round" stroke-linejoin="round" fill-opacity="0" stroke="rgb(193,168,131)" stroke-opacity="1" stroke-width="3" d="M0 0 M1.458,-16.898 C6.346,-16.481 10.645,-13.987 13.468,-10.304"></path></g></g><g transform="matrix(0.79,0,0,0.64,105.57,48.7)" opacity="1" style="user-select: none;"><g opacity="1" transform="matrix(1,0,0,1,22.09,-30.174)"><path fill="rgb(255,255,255)" fill-opacity="1" d="M0 0 M5.5905,-0.576 C5.5905,-0.576 5.5905,0.576 5.5905,0.576 C5.5905,0.576 -5.5905,0.576 -5.5905,0.576 C-5.5905,0.576 -5.5905,-0.576 -5.5905,-0.576 C-5.5905,-0.576 5.5905,-0.576 5.5905,-0.576z"></path><path stroke-linecap="round" stroke-linejoin="round" fill-opacity="0" stroke="rgb(193,168,131)" stroke-opacity="1" stroke-width="3" d="M0 0 M5.5905,-0.576 C5.5905,-0.576 5.5905,0.576 5.5905,0.576 C5.5905,0.576 -5.5905,0.576 -5.5905,0.576 C-5.5905,0.576 -5.5905,-0.576 -5.5905,-0.576 C-5.5905,-0.576 5.5905,-0.576 5.5905,-0.576z"></path></g></g><g transform="matrix(0.7489,-0.6165,0.286,0.3474,111.848,50.4029)" opacity="1" style="user-select: none;"><g opacity="1" transform="matrix(1,0,0,1,22.09,-30.174)"><path fill="rgb(255,255,255)" fill-opacity="1" d="M0 0 M7.5,-0.567 C7.5,-0.567 7.5,0.567 7.5,0.567 C7.5,0.567 -3.5,0.567 -3.5,0.567 C-3.5,0.567 -3.5,-0.567 -3.5,-0.567 C-3.5,-0.567 7.5,-0.567 7.5,-0.567z"></path><path stroke-linecap="round" stroke-linejoin="round" fill-opacity="0" stroke="rgb(193,168,131)" stroke-opacity="1" stroke-width="4" d="M0 0 M7.5,-0.567 C7.5,-0.567 7.5,0.567 7.5,0.567 C7.5,0.567 -3.5,0.567 -3.5,0.567 C-3.5,0.567 -3.5,-0.567 -3.5,-0.567 C-3.5,-0.567 7.5,-0.567 7.5,-0.567z"></path></g></g></g></svg>